<svg viewBox="0 0 330 200" xmlns="http://www.w3.org/2000/svg"><g><g><g><g><g><line x1="70" y1="178" x2="65" y2="178" style="visibility: inherit;" fill="rgb(0, 0, 0)" stroke="rgb(204, 204, 204)" stroke-width="1px"></line><line x1="70" y1="152.57142857142858" x2="65" y2="152.57142857142858" style="visibility: inherit;" fill="rgb(0, 0, 0)" stroke="rgb(204, 204, 204)" stroke-width="1px"></line><line x1="70" y1="127.14285714285715" x2="65" y2="127.14285714285715" style="visibility: inherit;" fill="rgb(0, 0, 0)" stroke="rgb(204, 204, 204)" stroke-width="1px"></line><line x1="70" y1="101.71428571428571" x2="65" y2="101.71428571428571" style="visibility: inherit;" fill="rgb(0, 0, 0)" stroke="rgb(204, 204, 204)" stroke-width="1px"></line><line x1="70" y1="76.28571428571429" x2="65" y2="76.28571428571429" style="visibility: inherit;" fill="rgb(0, 0, 0)" stroke="rgb(204, 204, 204)" stroke-width="1px"></line><line x1="70" y1="50.857142857142875" x2="65" y2="50.857142857142875" style="visibility: inherit;" fill="rgb(0, 0, 0)" stroke="rgb(204, 204, 204)" stroke-width="1px"></line><line x1="70" y1="25.428571428571445" x2="65" y2="25.428571428571445" style="visibility: inherit;" fill="rgb(0, 0, 0)" stroke="rgb(204, 204, 204)" stroke-width="1px"></line><line x1="70" y1="0" x2="65" y2="0" style="visibility: inherit;" fill="rgb(0, 0, 0)" stroke="rgb(204, 204, 204)" stroke-width="1px"></line></g><g transform="translate(60, 0)"><text x="0" y="178" dx="0em" dy="0.3em" style="text-anchor: end; visibility: hidden; font-family: &quot;Helvetica Neue&quot;, sans-serif; font-size: 12px; font-weight: 200;" fill="rgb(50, 49, 63)" stroke="none" stroke-width="1px">0.0500</text><text x="0" y="152.57142857142858" dx="0em" dy="0.3em" style="text-anchor: end; visibility: inherit; font-family: &quot;Helvetica Neue&quot;, sans-serif; font-size: 12px; font-weight: 200;" fill="rgb(50, 49, 63)" stroke="none" stroke-width="1px">0.100</text><text x="0" y="127.14285714285715" dx="0em" dy="0.3em" style="text-anchor: end; visibility: inherit; font-family: &quot;Helvetica Neue&quot;, sans-serif; font-size: 12px; font-weight: 200;" fill="rgb(50, 49, 63)" stroke="none" stroke-width="1px">0.150</text><text x="0" y="101.71428571428571" dx="0em" dy="0.3em" style="text-anchor: end; visibility: inherit; font-family: &quot;Helvetica Neue&quot;, sans-serif; font-size: 12px; font-weight: 200;" fill="rgb(50, 49, 63)" stroke="none" stroke-width="1px">0.200</text><text x="0" y="76.28571428571429" dx="0em" dy="0.3em" style="text-anchor: end; visibility: inherit; font-family: &quot;Helvetica Neue&quot;, sans-serif; font-size: 12px; font-weight: 200;" fill="rgb(50, 49, 63)" stroke="none" stroke-width="1px">0.250</text><text x="0" y="50.857142857142875" dx="0em" dy="0.3em" style="text-anchor: end; visibility: inherit; font-family: &quot;Helvetica Neue&quot;, sans-serif; font-size: 12px; font-weight: 200;" fill="rgb(50, 49, 63)" stroke="none" stroke-width="1px">0.300</text><text x="0" y="25.428571428571445" dx="0em" dy="0.3em" style="text-anchor: end; visibility: inherit; font-family: &quot;Helvetica Neue&quot;, sans-serif; font-size: 12px; font-weight: 200;" fill="rgb(50, 49, 63)" stroke="none" stroke-width="1px">0.350</text><text x="0" y="0" dx="0em" dy="0.3em" style="text-anchor: end; visibility: hidden; font-family: &quot;Helvetica Neue&quot;, sans-serif; font-size: 12px; font-weight: 200;" fill="rgb(50, 49, 63)" stroke="none" stroke-width="1px">0.400</text></g><line x1="70" y1="0" x2="70" y2="178" fill="rgb(0, 0, 0)" stroke="rgb(204, 204, 204)" stroke-width="1px"></line></g></g><g transform="translate(70, 0)" clip-path="url(#clip_0)"><clipPath id="clip_0"><rect width="260" height="178"></rect></clipPath><g><g><g><line x1="0" y1="0" x2="0" y2="178" fill="rgb(0, 0, 0)" stroke="rgb(60, 60, 60)" stroke-width="1px" opacity="0.25"></line><line x1="18.57142857142857" y1="0" x2="18.57142857142857" y2="178" fill="rgb(0, 0, 0)" stroke="rgb(60, 60, 60)" stroke-width="1px" opacity="0.25"></line><line x1="37.14285714285714" y1="0" x2="37.14285714285714" y2="178" fill="rgb(0, 0, 0)" stroke="rgb(60, 60, 60)" stroke-width="1px" opacity="0.25"></line><line x1="55.71428571428571" y1="0" x2="55.71428571428571" y2="178" fill="rgb(0, 0, 0)" stroke="rgb(60, 60, 60)" stroke-width="1px" opacity="0.25"></line><line x1="74.28571428571428" y1="0" x2="74.28571428571428" y2="178" fill="rgb(0, 0, 0)" stroke="rgb(60, 60, 60)" stroke-width="1px" opacity="0.25"></line><line x1="92.85714285714286" y1="0" x2="92.85714285714286" y2="178" fill="rgb(0, 0, 0)" stroke="rgb(60, 60, 60)" stroke-width="1px" opacity="0.25"></line><line x1="111.42857142857142" y1="0" x2="111.42857142857142" y2="178" fill="rgb(0, 0, 0)" stroke="rgb(60, 60, 60)" stroke-width="1px" opacity="0.25"></line><line x1="130" y1="0" x2="130" y2="178" fill="rgb(0, 0, 0)" stroke="rgb(60, 60, 60)" stroke-width="1px" opacity="0.25"></line><line x1="148.57142857142856" y1="0" x2="148.57142857142856" y2="178" fill="rgb(0, 0, 0)" stroke="rgb(60, 60, 60)" stroke-width="1px" opacity="0.25"></line><line x1="167.14285714285717" y1="0" x2="167.14285714285717" y2="178" fill="rgb(0, 0, 0)" stroke="rgb(60, 60, 60)" stroke-width="1px" opacity="0.25"></line><line x1="185.71428571428572" y1="0" x2="185.71428571428572" y2="178" fill="rgb(0, 0, 0)" stroke="rgb(60, 60, 60)" stroke-width="1px" opacity="0.25"></line><line x1="204.28571428571428" y1="0" x2="204.28571428571428" y2="178" fill="rgb(0, 0, 0)" stroke="rgb(60, 60, 60)" stroke-width="1px" opacity="0.25"></line><line x1="222.85714285714283" y1="0" x2="222.85714285714283" y2="178" fill="rgb(0, 0, 0)" stroke="rgb(60, 60, 60)" stroke-width="1px" opacity="0.25"></line><line x1="241.42857142857144" y1="0" x2="241.42857142857144" y2="178" fill="rgb(0, 0, 0)" stroke="rgb(60, 60, 60)" stroke-width="1px" opacity="0.25"></line><line x1="260" y1="0" x2="260" y2="178" fill="rgb(0, 0, 0)" stroke="rgb(60, 60, 60)" stroke-width="1px" opacity="0.25"></line></g><g><line x1="0" y1="178" x2="260" y2="178" fill="rgb(0, 0, 0)" stroke="rgb(60, 60, 60)" stroke-width="1px" opacity="0.25"></line><line x1="0" y1="152.57142857142858" x2="260" y2="152.57142857142858" fill="rgb(0, 0, 0)" stroke="rgb(60, 60, 60)" stroke-width="1px" opacity="0.25"></line><line x1="0" y1="127.14285714285715" x2="260" y2="127.14285714285715" fill="rgb(0, 0, 0)" stroke="rgb(60, 60, 60)" stroke-width="1px" opacity="0.25"></line><line x1="0" y1="101.71428571428571" x2="260" y2="101.71428571428571" fill="rgb(0, 0, 0)" stroke="rgb(60, 60, 60)" stroke-width="1px" opacity="0.25"></line><line x1="0" y1="76.28571428571429" x2="260" y2="76.28571428571429" fill="rgb(0, 0, 0)" stroke="rgb(60, 60, 60)" stroke-width="1px" opacity="0.25"></line><line x1="0" y1="50.857142857142875" x2="260" y2="50.857142857142875" fill="rgb(0, 0, 0)" stroke="rgb(60, 60, 60)" stroke-width="1px" opacity="0.25"></line><line x1="0" y1="25.428571428571445" x2="260" y2="25.428571428571445" fill="rgb(0, 0, 0)" stroke="rgb(60, 60, 60)" stroke-width="1px" opacity="0.25"></line><line x1="0" y1="0" x2="260" y2="0" fill="rgb(0, 0, 0)" stroke="rgb(60, 60, 60)" stroke-width="1px" opacity="0.25"></line></g></g></g><g><g><line x1="0" y1="203.42857142857142" x2="260" y2="203.42857142857142" fill="rgb(0, 0, 0)" stroke="rgb(153, 153, 153)" stroke-width="1.5px"></line></g></g><g><g><line x1="18.57142857142857" y1="0" x2="18.57142857142857" y2="178" fill="rgb(0, 0, 0)" stroke="rgb(153, 153, 153)" stroke-width="1.5px"></line></g></g><g><g><g><g><g><path stroke="rgb(0, 119, 187)" stroke-width="2px" d="M18.57142857142857,140.25637174504143L22.285714285714285,133.18921646582228L26,123.87433703560872L29.71428571428571,114.0372698069433L33.42857142857142,105.34652810674291L37.14285714285714,97.68613035759556L40.857142857142854,91.03718336198747L44.57142857142857,85.14312763900453L48.285714285714285,79.61390061627792L52,75.11857808632571L55.71428571428571,70.90348691062908L59.42857142857142,66.45790431563574L63.14285714285714,62.74746987201556L66.85714285714285,59.77333301370274L70.57142857142857,56.48349817163054L74.28571428571428,53.68723008133291L78,51.18697041032482L81.71428571428571,48.78427825410421L85.42857142857143,46.434203838176074L89.14285714285714,44.62525972448228L92.85714285714286,42.6506777883981L96.57142857142857,40.8968606043573L100.28571428571429,39.013571910006874L104,37.457929781126126L107.71428571428572,35.750244333060635L111.42857142857142,33.72502540727666L115.14285714285714,32.48243245795305L118.85714285714285,30.90891990865515L122.57142857142857,29.440224355550214L126.28571428571428,27.803777593708787L130,26.82597780271587L133.7142857142857,25.222410674119885L137.42857142857144,24.16338942499445L141.14285714285714,23.536112776188986L144.85714285714286,22.33128043688032L148.57142857142856,21.87487668583077L152.2857142857143,21.062198773127335L156,20.17155352548798L159.71428571428572,20.03486369239826L163.42857142857142,19.157952303491413L167.14285714285717,18.355397411419403L170.85714285714286,18.04220590896813L174.57142857142856,17.429378486653775L178.28571428571428,17.16263111645165L182,16.124536045425742L185.71428571428572,16.317171292337065L189.42857142857142,16.40758034313285L193.14285714285714,15.798396717698125L196.85714285714286,15.569180839257541L200.57142857142858,14.65760325626755L204.28571428571428,14.859532665060897L208,14.1692599923189L211.71428571428572,13.998705544602814L215.42857142857144,13.283797276847281L219.14285714285714,13.116764593961193L222.85714285714283,12.866518799057616L226.57142857142858,12.67365393341754L230.28571428571428,12.296271304665453L234,12.01390171243878L237.7142857142857,11.122558513163568" style="fill: none;" fill="none"></path></g><g><path stroke="rgb(255, 112, 67)" stroke-width="2px" d="M18.57142857142857,162.8816963859967L22.285714285714285,151.29198876555478L26,142.152559658355L29.71428571428571,132.8085057090874L33.42857142857142,124.05446042369377L37.14285714285714,116.62958414389945L40.857142857142854,110.34304799114054L44.57142857142857,104.9323753658951L48.285714285714285,100.33417810047789L52,96.1969943886102L55.71428571428571,92.58087159799152L59.42857142857142,89.49311529904416L63.14285714285714,86.69463317608225L66.85714285714285,84.17574519631738L70.57142857142857,81.97287840773376L74.28571428571428,79.9832687507149L78,78.13105053490791L81.71428571428571,76.4734568750093L85.42857142857143,74.90917005623685L89.14285714285714,73.38761138280846L92.85714285714286,72.12205824106667L96.57142857142857,70.85376028414547L100.28571428571429,69.59367503314752L104,68.35906106469675L107.71428571428572,67.1286456035454L111.42857142857142,66.05809236306823L115.14285714285714,64.98459803959317L118.85714285714285,64.13066179024256L122.57142857142857,63.207277221088006L126.28571428571428,62.36559843276032L130,61.490757828523044L133.7142857142857,60.857423146028765L137.42857142857144,60.21357609503147L141.14285714285714,59.5473495460336L144.85714285714286,58.98711119231527L148.57142857142856,58.44652370760299L152.2857142857143,57.981802825986136L156,57.45448071369238L159.71428571428572,57.048681638240154L163.42857142857142,56.60014538970621L167.14285714285717,56.22269632023891L170.85714285714286,55.95717132693203L174.57142857142856,55.674984727709656L178.28571428571428,55.38005478724958L182,55.152952695563954L185.71428571428572,54.87581984762855L189.42857142857142,54.59063350467936L193.14285714285714,54.32726644716642L196.85714285714286,54.12276392212141L200.57142857142858,53.938120374690314L204.28571428571428,53.68320095090027L208,53.481020628414L211.71428571428572,53.224842859421855L215.42857142857144,53.07835680687434L219.14285714285714,52.98354769869191L222.85714285714283,52.76595367011403L226.57142857142858,52.71911023950476L230.28571428571428,52.551145049734856L234,52.415887680192284L237.7142857142857,52.24440592746873" style="fill: none;" fill="none"></path></g></g></g></g><g opacity="0.2"><g><g><g><path stroke="rgb(0, 119, 187)" stroke-width="2px" d="M18.57142857142857,140.25637174504143L22.285714285714285,128.9489232982908L26,114.93205278260368L29.71428571428571,102.46887874603271L33.42857142857142,93.99989574296134L37.14285714285714,87.08904252733502L40.857142857142854,81.52908277511597L44.57142857142857,76.5495378119605L48.285714285714285,71.45936475481307L52,68.44354803221566L55.71428571428571,64.61908071381706L59.42857142857142,59.81372308731079L63.14285714285714,57.19393341881889L66.85714285714285,55.317954369953696L70.57142857142857,51.55261298588344L74.28571428571428,49.494800090789795L78,47.437638929912026L81.71428571428571,45.18085006305151L85.42857142857143,42.90945022446769L89.14285714285714,41.9120088985988L92.85714285714286,39.688913175037925L96.57142857142857,38.26619253839766L100.28571428571429,36.18867605073112L104,35.12448501586914L107.71428571428572,33.18872829845975L111.42857142857142,30.68720565523421L115.14285714285714,30.61854621342252L118.85714285714285,28.5486535004207L122.57142857142857,27.23718237876892L126.28571428571428,25.34910835538591L130,25.359278440475464L133.7142857142857,22.817060300282066L137.42857142857144,22.57485767773221L141.14285714285714,22.595197847911294L144.85714285714286,20.5240319796971L148.57142857142856,21.190271071025307L152.2857142857143,19.84318191664559L156,18.835585662296836L159.71428571428572,19.829828943525058L163.42857142857142,17.84258522306169L167.14285714285717,17.151565074920654L170.85714285714286,17.572418655668002L174.57142857142856,16.51013735362463L178.28571428571428,16.762510061264038L182,14.56739343915666L185.71428571428572,16.60612416267395L189.42857142857142,16.54319391931807L193.14285714285714,14.884621279580244L196.85714285714286,15.225357021604282L200.57142857142858,13.290236881801064L204.28571428571428,15.162426778248374L208,13.133850983210976L211.71428571428572,13.742873873029453L215.42857142857144,12.211434875215815L219.14285714285714,12.866215569632402L222.85714285714283,12.491150106702548L226.57142857142858,12.384356634957442L230.28571428571428,11.730197361537392L234,11.590347324098872L237.7142857142857,9.78554371425085" style="fill: none;" fill="none"></path></g><g><path stroke="rgb(255, 112, 67)" stroke-width="2px" d="M18.57142857142857,162.8816963859967L22.285714285714285,144.33816419328963L26,133.3787077154432L29.71428571428571,121.81989826474872L33.42857142857142,112.62517889908382L37.14285714285714,106.3583072934832L40.857142857142854,101.3532007081168L44.57142857142857,97.04356273583004L48.285714285714285,93.55273028782436L52,90.05375874042511L55.71428571428571,87.18948537962777L59.42857142857142,84.87828428404671L63.14285714285714,82.50604752131872L66.85714285714285,80.40234799044472L70.57142857142857,78.6711676120758L74.28571428571428,77.00025749206543L78,75.35350700787136L81.71428571428571,73.987487248012L85.42857142857143,72.5629781314305L89.14285714285714,71.10541244915554L92.85714285714286,70.22379793439593L96.57142857142857,68.95135508264815L100.28571428571429,67.70357203483582L104,66.50715473720007L107.71428571428572,65.28303115708488L111.42857142857142,64.45226706777301L115.14285714285714,63.374359301158364L118.85714285714285,62.84975872720992L122.57142857142857,61.82220121792385L126.28571428571428,61.103080715451924L130,60.17849721227374L133.7142857142857,59.90742124829974L137.42857142857144,59.24780559539795L141.14285714285714,58.54800977025714L144.85714285714286,58.146753685815L148.57142857142856,57.63564249447414L152.2857142857143,57.28472151075091L156,56.66349755014693L159.71428571428572,56.43998302732196L163.42857142857142,55.92734101840429L167.14285714285717,55.6565227167947L170.85714285714286,55.55888383729118L174.57142857142856,55.25170482907977L178.28571428571428,54.93765987668719L182,54.812299558094566L185.71428571428572,54.46012057576861L189.42857142857142,54.16285399028234L193.14285714285714,53.93221586091178L196.85714285714286,53.81601013456073L200.57142857142858,53.661155053547446L204.28571428571428,53.30082181521826L208,53.17775014468603L211.71428571428572,52.84057620593481L215.42857142857144,52.858627728053506L219.14285714285714,52.841334036418374L222.85714285714283,52.4395626272474L226.57142857142858,52.64884509359088L230.28571428571428,52.29919726508004L234,52.213001625878476L237.7142857142857,51.98718329838344" style="fill: none;" fill="none"></path></g></g></g></g></g></g><g transform="translate(70, 178)" clip-path="url(#clip_1)"><clipPath id="clip_1"><rect width="260" height="22"></rect></clipPath><g><g><line x1="0" y1="0" x2="0" y2="5" style="visibility: inherit;" fill="rgb(0, 0, 0)" stroke="rgb(204, 204, 204)" stroke-width="1px"></line><line x1="18.57142857142857" y1="0" x2="18.57142857142857" y2="5" style="visibility: inherit;" fill="rgb(0, 0, 0)" stroke="rgb(204, 204, 204)" stroke-width="1px"></line><line x1="37.14285714285714" y1="0" x2="37.14285714285714" y2="5" style="visibility: inherit;" fill="rgb(0, 0, 0)" stroke="rgb(204, 204, 204)" stroke-width="1px"></line><line x1="55.71428571428571" y1="0" x2="55.71428571428571" y2="5" style="visibility: inherit;" fill="rgb(0, 0, 0)" stroke="rgb(204, 204, 204)" stroke-width="1px"></line><line x1="74.28571428571428" y1="0" x2="74.28571428571428" y2="5" style="visibility: inherit;" fill="rgb(0, 0, 0)" stroke="rgb(204, 204, 204)" stroke-width="1px"></line><line x1="92.85714285714286" y1="0" x2="92.85714285714286" y2="5" style="visibility: inherit;" fill="rgb(0, 0, 0)" stroke="rgb(204, 204, 204)" stroke-width="1px"></line><line x1="111.42857142857142" y1="0" x2="111.42857142857142" y2="5" style="visibility: inherit;" fill="rgb(0, 0, 0)" stroke="rgb(204, 204, 204)" stroke-width="1px"></line><line x1="130" y1="0" x2="130" y2="5" style="visibility: inherit;" fill="rgb(0, 0, 0)" stroke="rgb(204, 204, 204)" stroke-width="1px"></line><line x1="148.57142857142856" y1="0" x2="148.57142857142856" y2="5" style="visibility: inherit;" fill="rgb(0, 0, 0)" stroke="rgb(204, 204, 204)" stroke-width="1px"></line><line x1="167.14285714285717" y1="0" x2="167.14285714285717" y2="5" style="visibility: inherit;" fill="rgb(0, 0, 0)" stroke="rgb(204, 204, 204)" stroke-width="1px"></line><line x1="185.71428571428572" y1="0" x2="185.71428571428572" y2="5" style="visibility: inherit;" fill="rgb(0, 0, 0)" stroke="rgb(204, 204, 204)" stroke-width="1px"></line><line x1="204.28571428571428" y1="0" x2="204.28571428571428" y2="5" style="visibility: inherit;" fill="rgb(0, 0, 0)" stroke="rgb(204, 204, 204)" stroke-width="1px"></line><line x1="222.85714285714283" y1="0" x2="222.85714285714283" y2="5" style="visibility: inherit;" fill="rgb(0, 0, 0)" stroke="rgb(204, 204, 204)" stroke-width="1px"></line><line x1="241.42857142857144" y1="0" x2="241.42857142857144" y2="5" style="visibility: inherit;" fill="rgb(0, 0, 0)" stroke="rgb(204, 204, 204)" stroke-width="1px"></line><line x1="260" y1="0" x2="260" y2="5" style="visibility: inherit;" fill="rgb(0, 0, 0)" stroke="rgb(204, 204, 204)" stroke-width="1px"></line></g><g transform="translate(0, 8)"><text x="0" y="0" dx="0em" dy="0.95em" style="text-anchor: middle; visibility: hidden; font-family: &quot;Helvetica Neue&quot;, sans-serif; font-size: 12px; font-weight: 200;" fill="rgb(50, 49, 63)" stroke="none" stroke-width="1px">-5.000</text><text x="18.57142857142857" y="0" dx="0em" dy="0.95em" style="text-anchor: middle; visibility: inherit; font-family: &quot;Helvetica Neue&quot;, sans-serif; font-size: 12px; font-weight: 200;" fill="rgb(50, 49, 63)" stroke="none" stroke-width="1px">0.000</text><text x="37.14285714285714" y="0" dx="0em" dy="0.95em" style="text-anchor: middle; visibility: hidden; font-family: &quot;Helvetica Neue&quot;, sans-serif; font-size: 12px; font-weight: 200;" fill="rgb(50, 49, 63)" stroke="none" stroke-width="1px">5.000</text><text x="55.71428571428571" y="0" dx="0em" dy="0.95em" style="text-anchor: middle; visibility: inherit; font-family: &quot;Helvetica Neue&quot;, sans-serif; font-size: 12px; font-weight: 200;" fill="rgb(50, 49, 63)" stroke="none" stroke-width="1px">10.00</text><text x="74.28571428571428" y="0" dx="0em" dy="0.95em" style="text-anchor: middle; visibility: hidden; font-family: &quot;Helvetica Neue&quot;, sans-serif; font-size: 12px; font-weight: 200;" fill="rgb(50, 49, 63)" stroke="none" stroke-width="1px">15.00</text><text x="92.85714285714286" y="0" dx="0em" dy="0.95em" style="text-anchor: middle; visibility: inherit; font-family: &quot;Helvetica Neue&quot;, sans-serif; font-size: 12px; font-weight: 200;" fill="rgb(50, 49, 63)" stroke="none" stroke-width="1px">20.00</text><text x="111.42857142857142" y="0" dx="0em" dy="0.95em" style="text-anchor: middle; visibility: hidden; font-family: &quot;Helvetica Neue&quot;, sans-serif; font-size: 12px; font-weight: 200;" fill="rgb(50, 49, 63)" stroke="none" stroke-width="1px">25.00</text><text x="130" y="0" dx="0em" dy="0.95em" style="text-anchor: middle; visibility: inherit; font-family: &quot;Helvetica Neue&quot;, sans-serif; font-size: 12px; font-weight: 200;" fill="rgb(50, 49, 63)" stroke="none" stroke-width="1px">30.00</text><text x="148.57142857142856" y="0" dx="0em" dy="0.95em" style="text-anchor: middle; visibility: hidden; font-family: &quot;Helvetica Neue&quot;, sans-serif; font-size: 12px; font-weight: 200;" fill="rgb(50, 49, 63)" stroke="none" stroke-width="1px">35.00</text><text x="167.14285714285717" y="0" dx="0em" dy="0.95em" style="text-anchor: middle; visibility: inherit; font-family: &quot;Helvetica Neue&quot;, sans-serif; font-size: 12px; font-weight: 200;" fill="rgb(50, 49, 63)" stroke="none" stroke-width="1px">40.00</text><text x="185.71428571428572" y="0" dx="0em" dy="0.95em" style="text-anchor: middle; visibility: hidden; font-family: &quot;Helvetica Neue&quot;, sans-serif; font-size: 12px; font-weight: 200;" fill="rgb(50, 49, 63)" stroke="none" stroke-width="1px">45.00</text><text x="204.28571428571428" y="0" dx="0em" dy="0.95em" style="text-anchor: middle; visibility: inherit; font-family: &quot;Helvetica Neue&quot;, sans-serif; font-size: 12px; font-weight: 200;" fill="rgb(50, 49, 63)" stroke="none" stroke-width="1px">50.00</text><text x="222.85714285714283" y="0" dx="0em" dy="0.95em" style="text-anchor: middle; visibility: hidden; font-family: &quot;Helvetica Neue&quot;, sans-serif; font-size: 12px; font-weight: 200;" fill="rgb(50, 49, 63)" stroke="none" stroke-width="1px">55.00</text><text x="241.42857142857144" y="0" dx="0em" dy="0.95em" style="text-anchor: middle; visibility: inherit; font-family: &quot;Helvetica Neue&quot;, sans-serif; font-size: 12px; font-weight: 200;" fill="rgb(50, 49, 63)" stroke="none" stroke-width="1px">60.00</text><text x="260" y="0" dx="0em" dy="0.95em" style="text-anchor: middle; visibility: hidden; font-family: &quot;Helvetica Neue&quot;, sans-serif; font-size: 12px; font-weight: 200;" fill="rgb(50, 49, 63)" stroke="none" stroke-width="1px">65.00</text></g><line x1="0" y1="0" x2="260" y2="0" fill="rgb(0, 0, 0)" stroke="rgb(204, 204, 204)" stroke-width="1px"></line></g></g></g></g></svg>