<svg viewBox="0 0 330 200" xmlns="http://www.w3.org/2000/svg"><g><g><g><g><g><line x1="70" y1="177.99999999999997" x2="65" y2="177.99999999999997" style="visibility: inherit;" fill="rgb(0, 0, 0)" stroke="rgb(204, 204, 204)" stroke-width="1px"></line><line x1="70" y1="163.99292661361625" x2="65" y2="163.99292661361625" style="visibility: inherit;" fill="rgb(0, 0, 0)" stroke="rgb(204, 204, 204)" stroke-width="1px"></line><line x1="70" y1="149.98585322723252" x2="65" y2="149.98585322723252" style="visibility: inherit;" fill="rgb(0, 0, 0)" stroke="rgb(204, 204, 204)" stroke-width="1px"></line><line x1="70" y1="135.9787798408488" x2="65" y2="135.9787798408488" style="visibility: inherit;" fill="rgb(0, 0, 0)" stroke="rgb(204, 204, 204)" stroke-width="1px"></line><line x1="70" y1="121.97170645446505" x2="65" y2="121.97170645446505" style="visibility: inherit;" fill="rgb(0, 0, 0)" stroke="rgb(204, 204, 204)" stroke-width="1px"></line><line x1="70" y1="107.96463306808133" x2="65" y2="107.96463306808133" style="visibility: inherit;" fill="rgb(0, 0, 0)" stroke="rgb(204, 204, 204)" stroke-width="1px"></line><line x1="70" y1="93.95755968169759" x2="65" y2="93.95755968169759" style="visibility: inherit;" fill="rgb(0, 0, 0)" stroke="rgb(204, 204, 204)" stroke-width="1px"></line><line x1="70" y1="79.95048629531387" x2="65" y2="79.95048629531387" style="visibility: inherit;" fill="rgb(0, 0, 0)" stroke="rgb(204, 204, 204)" stroke-width="1px"></line><line x1="70" y1="65.94341290893011" x2="65" y2="65.94341290893011" style="visibility: inherit;" fill="rgb(0, 0, 0)" stroke="rgb(204, 204, 204)" stroke-width="1px"></line><line x1="70" y1="51.936339522546405" x2="65" y2="51.936339522546405" style="visibility: inherit;" fill="rgb(0, 0, 0)" stroke="rgb(204, 204, 204)" stroke-width="1px"></line><line x1="70" y1="37.92926613616268" x2="65" y2="37.92926613616268" style="visibility: inherit;" fill="rgb(0, 0, 0)" stroke="rgb(204, 204, 204)" stroke-width="1px"></line><line x1="70" y1="23.92219274977893" x2="65" y2="23.92219274977893" style="visibility: inherit;" fill="rgb(0, 0, 0)" stroke="rgb(204, 204, 204)" stroke-width="1px"></line><line x1="70" y1="9.915119363395178" x2="65" y2="9.915119363395178" style="visibility: inherit;" fill="rgb(0, 0, 0)" stroke="rgb(204, 204, 204)" stroke-width="1px"></line></g><g transform="translate(60, 0)"><text x="0" y="177.99999999999997" dx="0em" dy="0.3em" style="text-anchor: end; visibility: hidden; font-family: &quot;Helvetica Neue&quot;, sans-serif; font-size: 12px; font-weight: 200;" fill="rgb(50, 49, 63)" stroke="none" stroke-width="1px">0.0400</text><text x="0" y="163.99292661361625" dx="0em" dy="0.3em" style="text-anchor: end; visibility: inherit; font-family: &quot;Helvetica Neue&quot;, sans-serif; font-size: 12px; font-weight: 200;" fill="rgb(50, 49, 63)" stroke="none" stroke-width="1px">0.0600</text><text x="0" y="149.98585322723252" dx="0em" dy="0.3em" style="text-anchor: end; visibility: hidden; font-family: &quot;Helvetica Neue&quot;, sans-serif; font-size: 12px; font-weight: 200;" fill="rgb(50, 49, 63)" stroke="none" stroke-width="1px">0.0800</text><text x="0" y="135.9787798408488" dx="0em" dy="0.3em" style="text-anchor: end; visibility: inherit; font-family: &quot;Helvetica Neue&quot;, sans-serif; font-size: 12px; font-weight: 200;" fill="rgb(50, 49, 63)" stroke="none" stroke-width="1px">0.100</text><text x="0" y="121.97170645446505" dx="0em" dy="0.3em" style="text-anchor: end; visibility: hidden; font-family: &quot;Helvetica Neue&quot;, sans-serif; font-size: 12px; font-weight: 200;" fill="rgb(50, 49, 63)" stroke="none" stroke-width="1px">0.120</text><text x="0" y="107.96463306808133" dx="0em" dy="0.3em" style="text-anchor: end; visibility: inherit; font-family: &quot;Helvetica Neue&quot;, sans-serif; font-size: 12px; font-weight: 200;" fill="rgb(50, 49, 63)" stroke="none" stroke-width="1px">0.140</text><text x="0" y="93.95755968169759" dx="0em" dy="0.3em" style="text-anchor: end; visibility: hidden; font-family: &quot;Helvetica Neue&quot;, sans-serif; font-size: 12px; font-weight: 200;" fill="rgb(50, 49, 63)" stroke="none" stroke-width="1px">0.160</text><text x="0" y="79.95048629531387" dx="0em" dy="0.3em" style="text-anchor: end; visibility: inherit; font-family: &quot;Helvetica Neue&quot;, sans-serif; font-size: 12px; font-weight: 200;" fill="rgb(50, 49, 63)" stroke="none" stroke-width="1px">0.180</text><text x="0" y="65.94341290893011" dx="0em" dy="0.3em" style="text-anchor: end; visibility: hidden; font-family: &quot;Helvetica Neue&quot;, sans-serif; font-size: 12px; font-weight: 200;" fill="rgb(50, 49, 63)" stroke="none" stroke-width="1px">0.200</text><text x="0" y="51.936339522546405" dx="0em" dy="0.3em" style="text-anchor: end; visibility: inherit; font-family: &quot;Helvetica Neue&quot;, sans-serif; font-size: 12px; font-weight: 200;" fill="rgb(50, 49, 63)" stroke="none" stroke-width="1px">0.220</text><text x="0" y="37.92926613616268" dx="0em" dy="0.3em" style="text-anchor: end; visibility: hidden; font-family: &quot;Helvetica Neue&quot;, sans-serif; font-size: 12px; font-weight: 200;" fill="rgb(50, 49, 63)" stroke="none" stroke-width="1px">0.240</text><text x="0" y="23.92219274977893" dx="0em" dy="0.3em" style="text-anchor: end; visibility: inherit; font-family: &quot;Helvetica Neue&quot;, sans-serif; font-size: 12px; font-weight: 200;" fill="rgb(50, 49, 63)" stroke="none" stroke-width="1px">0.260</text><text x="0" y="9.915119363395178" dx="0em" dy="0.3em" style="text-anchor: end; visibility: hidden; font-family: &quot;Helvetica Neue&quot;, sans-serif; font-size: 12px; font-weight: 200;" fill="rgb(50, 49, 63)" stroke="none" stroke-width="1px">0.280</text></g><line x1="70" y1="0" x2="70" y2="178" fill="rgb(0, 0, 0)" stroke="rgb(204, 204, 204)" stroke-width="1px"></line></g></g><g transform="translate(70, 0)" clip-path="url(#clip_0)"><clipPath id="clip_0"><rect width="260" height="178"></rect></clipPath><g><g><g><line x1="23.523809523809522" y1="0" x2="23.523809523809522" y2="178" fill="rgb(0, 0, 0)" stroke="rgb(60, 60, 60)" stroke-width="1px" opacity="0.25"></line><line x1="48.285714285714285" y1="0" x2="48.285714285714285" y2="178" fill="rgb(0, 0, 0)" stroke="rgb(60, 60, 60)" stroke-width="1px" opacity="0.25"></line><line x1="73.04761904761905" y1="0" x2="73.04761904761905" y2="178" fill="rgb(0, 0, 0)" stroke="rgb(60, 60, 60)" stroke-width="1px" opacity="0.25"></line><line x1="97.80952380952381" y1="0" x2="97.80952380952381" y2="178" fill="rgb(0, 0, 0)" stroke="rgb(60, 60, 60)" stroke-width="1px" opacity="0.25"></line><line x1="122.57142857142857" y1="0" x2="122.57142857142857" y2="178" fill="rgb(0, 0, 0)" stroke="rgb(60, 60, 60)" stroke-width="1px" opacity="0.25"></line><line x1="147.33333333333334" y1="0" x2="147.33333333333334" y2="178" fill="rgb(0, 0, 0)" stroke="rgb(60, 60, 60)" stroke-width="1px" opacity="0.25"></line><line x1="172.0952380952381" y1="0" x2="172.0952380952381" y2="178" fill="rgb(0, 0, 0)" stroke="rgb(60, 60, 60)" stroke-width="1px" opacity="0.25"></line><line x1="196.85714285714283" y1="0" x2="196.85714285714283" y2="178" fill="rgb(0, 0, 0)" stroke="rgb(60, 60, 60)" stroke-width="1px" opacity="0.25"></line><line x1="221.61904761904762" y1="0" x2="221.61904761904762" y2="178" fill="rgb(0, 0, 0)" stroke="rgb(60, 60, 60)" stroke-width="1px" opacity="0.25"></line><line x1="246.38095238095238" y1="0" x2="246.38095238095238" y2="178" fill="rgb(0, 0, 0)" stroke="rgb(60, 60, 60)" stroke-width="1px" opacity="0.25"></line></g><g><line x1="0" y1="177.99999999999997" x2="260" y2="177.99999999999997" fill="rgb(0, 0, 0)" stroke="rgb(60, 60, 60)" stroke-width="1px" opacity="0.25"></line><line x1="0" y1="163.99292661361625" x2="260" y2="163.99292661361625" fill="rgb(0, 0, 0)" stroke="rgb(60, 60, 60)" stroke-width="1px" opacity="0.25"></line><line x1="0" y1="149.98585322723252" x2="260" y2="149.98585322723252" fill="rgb(0, 0, 0)" stroke="rgb(60, 60, 60)" stroke-width="1px" opacity="0.25"></line><line x1="0" y1="135.9787798408488" x2="260" y2="135.9787798408488" fill="rgb(0, 0, 0)" stroke="rgb(60, 60, 60)" stroke-width="1px" opacity="0.25"></line><line x1="0" y1="121.97170645446505" x2="260" y2="121.97170645446505" fill="rgb(0, 0, 0)" stroke="rgb(60, 60, 60)" stroke-width="1px" opacity="0.25"></line><line x1="0" y1="107.96463306808133" x2="260" y2="107.96463306808133" fill="rgb(0, 0, 0)" stroke="rgb(60, 60, 60)" stroke-width="1px" opacity="0.25"></line><line x1="0" y1="93.95755968169759" x2="260" y2="93.95755968169759" fill="rgb(0, 0, 0)" stroke="rgb(60, 60, 60)" stroke-width="1px" opacity="0.25"></line><line x1="0" y1="79.95048629531387" x2="260" y2="79.95048629531387" fill="rgb(0, 0, 0)" stroke="rgb(60, 60, 60)" stroke-width="1px" opacity="0.25"></line><line x1="0" y1="65.94341290893011" x2="260" y2="65.94341290893011" fill="rgb(0, 0, 0)" stroke="rgb(60, 60, 60)" stroke-width="1px" opacity="0.25"></line><line x1="0" y1="51.936339522546405" x2="260" y2="51.936339522546405" fill="rgb(0, 0, 0)" stroke="rgb(60, 60, 60)" stroke-width="1px" opacity="0.25"></line><line x1="0" y1="37.92926613616268" x2="260" y2="37.92926613616268" fill="rgb(0, 0, 0)" stroke="rgb(60, 60, 60)" stroke-width="1px" opacity="0.25"></line><line x1="0" y1="23.92219274977893" x2="260" y2="23.92219274977893" fill="rgb(0, 0, 0)" stroke="rgb(60, 60, 60)" stroke-width="1px" opacity="0.25"></line><line x1="0" y1="9.915119363395178" x2="260" y2="9.915119363395178" fill="rgb(0, 0, 0)" stroke="rgb(60, 60, 60)" stroke-width="1px" opacity="0.25"></line></g></g></g><g><g><line x1="0" y1="206.01414677276745" x2="260" y2="206.01414677276745" fill="rgb(0, 0, 0)" stroke="rgb(153, 153, 153)" stroke-width="1.5px"></line></g></g><g><g><line x1="23.523809523809522" y1="0" x2="23.523809523809522" y2="178" fill="rgb(0, 0, 0)" stroke="rgb(153, 153, 153)" stroke-width="1.5px"></line></g></g><g><g><g><g><g><path stroke="rgb(0, 119, 187)" stroke-width="2px" d="M23.523809523809522,159.64022782576706L31.88160582010582,141.78613477096513L40.246211640211634,132.02288934581117L48.62969841269841,126.4740242338371L56.90935714285715,121.06026240320665L65.18540476190476,115.73865756112241L73.47723809523808,110.5609347874705L81.67397883597883,104.63170768045066L89.80303703703704,99.40698825877078L97.95379629629629,94.0896970207093L106.09709259259259,89.42735882087273L114.22955555555555,85.39180500779688L122.38062433862434,82.05077848720155L130.50146296296296,79.06489023947069L138.67560846560843,76.95569526271575L146.80105555555556,75.0119756948795L154.92722486772485,73.16033240411672L163.07268783068778,71.35682968957313L171.20401587301586,69.8160847024773L179.3207962962963,68.13423590541464L187.4692513227513,66.80229571503887L195.645873015873,65.14660795756252L203.80677777777774,63.477012527986105L211.95856878306876,62.022131015836834L220.08841798941796,60.29127457683208L228.2243544973545,58.1948772048768L236.34907936507935,56.58371251101637L244.48432804232803,54.338865145714365L252.61053174603174,51.781747243248816L260.7275529100529,50.42536643910384" style="fill: none;" fill="none"></path></g><g><path stroke="rgb(255, 112, 67)" stroke-width="2px" d="M23.523809523809522,168.7637358970156L31.88053968253968,160.66173673372558L40.24548941798942,145.13083583822103L48.62887301587301,135.1416995023946L56.91853968253968,127.97207343782466L65.18492328042328,121.64732692448894L73.47672222222222,115.80248547473326L81.67356613756614,110.26997790007732L89.80331216931218,105.04572695803273L97.95379629629629,100.35349276883498L106.09719576719577,96.10122482155326L114.22928042328041,92.39716158825748L122.38041798941799,89.20666961158472L130.50077513227512,86.49685487927842L138.67560846560843,84.09260497224425L146.80095238095237,81.96031635729878L154.92739682539678,80.12543341631947L163.07299735449735,78.50232761788979L171.20380952380953,76.85772657700448L179.32107142857143,75.51019559468926L187.46914814814815,74.06325254854987L195.645873015873,72.78273440194917L203.8060899470899,71.35189225725016L211.9587751322751,70.05020923067192L220.08814285714283,68.83021872221299L228.22462962962962,67.52884133048701L236.34942328042328,66.15467430176064L244.4841216931217,64.93139531368661L252.61056613756614,63.71964765179946L260.72652116402116,62.45612611769923" style="fill: none;" fill="none"></path></g></g></g></g><g opacity="0.2"><g><g><g><path stroke="rgb(0, 119, 187)" stroke-width="2px" d="M23.523809523809522,159.64022782576706L31.88160582010582,131.073678938084L40.246211640211634,122.65017373766337L48.62969841269841,119.94855886215555L56.90935714285715,113.9920549571356L65.18540476190476,108.3769622867767L73.47723809523808,103.1567083775839L81.67397883597883,95.98683763783552L89.80303703703704,91.70154196129342L97.95379629629629,86.19413923057805L106.09709259259259,82.47613858544226L114.22955555555555,79.36043559382384L122.38062433862434,77.05014773757976L130.50146296296296,74.5919075337898L138.67560846560843,73.79438207710241L146.80105555555556,72.0977672047577L154.92722486772485,70.38365102135744L163.07268783068778,68.65203352690162L171.20401587301586,67.50520193882475L179.3207962962963,65.61161643746254L187.4692513227513,64.80445847624068L195.645873015873,62.66313080245892L203.80677777777774,60.97265234687072L211.95856878306876,59.839825982071446L220.08841798941796,57.69500222051174L228.2243544973545,55.05029008712101L236.34907936507935,54.16696959275464L244.48432804232803,50.971597544130844L252.61053174603174,47.94607274501749L260.7275529100529,48.39079598253747" style="fill: none;" fill="none"></path></g><g><path stroke="rgb(255, 112, 67)" stroke-width="2px" d="M23.523809523809522,168.7637358970156L31.88053968253968,155.8005372357516L40.24548941798942,130.22117097853663L48.62887301587301,123.39447517146269L56.91853968253968,118.61140964792219L65.18492328042328,112.89792558780081L73.47672222222222,107.44426868411948L81.67356613756614,102.20352874415622L89.80331216931218,97.34097157701994L97.95379629629629,93.38607184961766L106.09719576719577,89.7613906579456L114.22928042328041,86.86122408685802L122.38041798941799,84.43134915644251L130.50077513227512,82.43744158997774L138.67560846560843,80.48905621720665L146.80095238095237,78.7633872900148L154.92739682539678,77.37388546581714L163.07299735449735,76.06808102663166L171.20380952380953,74.39107555409218L179.32107142857143,73.48902229088581L187.46914814814815,71.89291733313617L195.645873015873,70.86199931804316L203.8060899470899,69.20565728968374L211.9587751322751,68.097700110481L220.08814285714283,67.00024163069499L228.22462962962962,65.57678079267816L236.34942328042328,64.09342727478786L244.4841216931217,63.09647870959695L252.61056613756614,61.902027275159625L260.72652116402116,60.560844514877985" style="fill: none;" fill="none"></path></g></g></g></g></g></g><g transform="translate(70, 178)" clip-path="url(#clip_1)"><clipPath id="clip_1"><rect width="260" height="22"></rect></clipPath><g><g><line x1="23.523809523809522" y1="0" x2="23.523809523809522" y2="5" style="visibility: inherit;" fill="rgb(0, 0, 0)" stroke="rgb(204, 204, 204)" stroke-width="1px"></line><line x1="48.285714285714285" y1="0" x2="48.285714285714285" y2="5" style="visibility: inherit;" fill="rgb(0, 0, 0)" stroke="rgb(204, 204, 204)" stroke-width="1px"></line><line x1="73.04761904761905" y1="0" x2="73.04761904761905" y2="5" style="visibility: inherit;" fill="rgb(0, 0, 0)" stroke="rgb(204, 204, 204)" stroke-width="1px"></line><line x1="97.80952380952381" y1="0" x2="97.80952380952381" y2="5" style="visibility: inherit;" fill="rgb(0, 0, 0)" stroke="rgb(204, 204, 204)" stroke-width="1px"></line><line x1="122.57142857142857" y1="0" x2="122.57142857142857" y2="5" style="visibility: inherit;" fill="rgb(0, 0, 0)" stroke="rgb(204, 204, 204)" stroke-width="1px"></line><line x1="147.33333333333334" y1="0" x2="147.33333333333334" y2="5" style="visibility: inherit;" fill="rgb(0, 0, 0)" stroke="rgb(204, 204, 204)" stroke-width="1px"></line><line x1="172.0952380952381" y1="0" x2="172.0952380952381" y2="5" style="visibility: inherit;" fill="rgb(0, 0, 0)" stroke="rgb(204, 204, 204)" stroke-width="1px"></line><line x1="196.85714285714283" y1="0" x2="196.85714285714283" y2="5" style="visibility: inherit;" fill="rgb(0, 0, 0)" stroke="rgb(204, 204, 204)" stroke-width="1px"></line><line x1="221.61904761904762" y1="0" x2="221.61904761904762" y2="5" style="visibility: inherit;" fill="rgb(0, 0, 0)" stroke="rgb(204, 204, 204)" stroke-width="1px"></line><line x1="246.38095238095238" y1="0" x2="246.38095238095238" y2="5" style="visibility: inherit;" fill="rgb(0, 0, 0)" stroke="rgb(204, 204, 204)" stroke-width="1px"></line></g><g transform="translate(0, 8)"><text x="23.523809523809522" y="0" dx="0em" dy="0.95em" style="text-anchor: middle; visibility: inherit; font-family: &quot;Helvetica Neue&quot;, sans-serif; font-size: 12px; font-weight: 200;" fill="rgb(50, 49, 63)" stroke="none" stroke-width="1px">0</text><text x="48.285714285714285" y="0" dx="0em" dy="0.95em" style="text-anchor: middle; visibility: inherit; font-family: &quot;Helvetica Neue&quot;, sans-serif; font-size: 12px; font-weight: 200;" fill="rgb(50, 49, 63)" stroke="none" stroke-width="1px">0.2</text><text x="73.04761904761905" y="0" dx="0em" dy="0.95em" style="text-anchor: middle; visibility: inherit; font-family: &quot;Helvetica Neue&quot;, sans-serif; font-size: 12px; font-weight: 200;" fill="rgb(50, 49, 63)" stroke="none" stroke-width="1px">0.4</text><text x="97.80952380952381" y="0" dx="0em" dy="0.95em" style="text-anchor: middle; visibility: inherit; font-family: &quot;Helvetica Neue&quot;, sans-serif; font-size: 12px; font-weight: 200;" fill="rgb(50, 49, 63)" stroke="none" stroke-width="1px">0.6</text><text x="122.57142857142857" y="0" dx="0em" dy="0.95em" style="text-anchor: middle; visibility: inherit; font-family: &quot;Helvetica Neue&quot;, sans-serif; font-size: 12px; font-weight: 200;" fill="rgb(50, 49, 63)" stroke="none" stroke-width="1px">0.8</text><text x="147.33333333333334" y="0" dx="0em" dy="0.95em" style="text-anchor: middle; visibility: inherit; font-family: &quot;Helvetica Neue&quot;, sans-serif; font-size: 12px; font-weight: 200;" fill="rgb(50, 49, 63)" stroke="none" stroke-width="1px">1</text><text x="172.0952380952381" y="0" dx="0em" dy="0.95em" style="text-anchor: middle; visibility: inherit; font-family: &quot;Helvetica Neue&quot;, sans-serif; font-size: 12px; font-weight: 200;" fill="rgb(50, 49, 63)" stroke="none" stroke-width="1px">1.2</text><text x="196.85714285714283" y="0" dx="0em" dy="0.95em" style="text-anchor: middle; visibility: inherit; font-family: &quot;Helvetica Neue&quot;, sans-serif; font-size: 12px; font-weight: 200;" fill="rgb(50, 49, 63)" stroke="none" stroke-width="1px">1.4</text><text x="221.61904761904762" y="0" dx="0em" dy="0.95em" style="text-anchor: middle; visibility: inherit; font-family: &quot;Helvetica Neue&quot;, sans-serif; font-size: 12px; font-weight: 200;" fill="rgb(50, 49, 63)" stroke="none" stroke-width="1px">1.6</text><text x="246.38095238095238" y="0" dx="0em" dy="0.95em" style="text-anchor: middle; visibility: inherit; font-family: &quot;Helvetica Neue&quot;, sans-serif; font-size: 12px; font-weight: 200;" fill="rgb(50, 49, 63)" stroke="none" stroke-width="1px">1.8</text></g><line x1="0" y1="0" x2="260" y2="0" fill="rgb(0, 0, 0)" stroke="rgb(204, 204, 204)" stroke-width="1px"></line></g></g></g></g></svg>