<svg viewBox="0 0 330 200" xmlns="http://www.w3.org/2000/svg"><g><g><g><g><g><line x1="50" y1="178" x2="45" y2="178" style="visibility: inherit;" fill="rgb(0, 0, 0)" stroke="rgb(204, 204, 204)" stroke-width="1px"></line><line x1="50" y1="158.02017874337105" x2="45" y2="158.02017874337105" style="visibility: inherit;" fill="rgb(0, 0, 0)" stroke="rgb(204, 204, 204)" stroke-width="1px"></line><line x1="50" y1="138.0403574867421" x2="45" y2="138.0403574867421" style="visibility: inherit;" fill="rgb(0, 0, 0)" stroke="rgb(204, 204, 204)" stroke-width="1px"></line><line x1="50" y1="118.06053623011316" x2="45" y2="118.06053623011316" style="visibility: inherit;" fill="rgb(0, 0, 0)" stroke="rgb(204, 204, 204)" stroke-width="1px"></line><line x1="50" y1="98.0807149734842" x2="45" y2="98.0807149734842" style="visibility: inherit;" fill="rgb(0, 0, 0)" stroke="rgb(204, 204, 204)" stroke-width="1px"></line><line x1="50" y1="78.10089371685527" x2="45" y2="78.10089371685527" style="visibility: inherit;" fill="rgb(0, 0, 0)" stroke="rgb(204, 204, 204)" stroke-width="1px"></line><line x1="50" y1="58.121072460226316" x2="45" y2="58.121072460226316" style="visibility: inherit;" fill="rgb(0, 0, 0)" stroke="rgb(204, 204, 204)" stroke-width="1px"></line><line x1="50" y1="38.14125120359736" x2="45" y2="38.14125120359736" style="visibility: inherit;" fill="rgb(0, 0, 0)" stroke="rgb(204, 204, 204)" stroke-width="1px"></line><line x1="50" y1="18.16142994696841" x2="45" y2="18.16142994696841" style="visibility: inherit;" fill="rgb(0, 0, 0)" stroke="rgb(204, 204, 204)" stroke-width="1px"></line></g><g transform="translate(40, 0)"><text x="0" y="178" dx="0em" dy="0.3em" style="text-anchor: end; visibility: hidden; font-family: &quot;Helvetica Neue&quot;, sans-serif; font-size: 12px; font-weight: 200;" fill="rgb(50, 49, 63)" stroke="none" stroke-width="1px">40.0</text><text x="0" y="158.02017874337105" dx="0em" dy="0.3em" style="text-anchor: end; visibility: inherit; font-family: &quot;Helvetica Neue&quot;, sans-serif; font-size: 12px; font-weight: 200;" fill="rgb(50, 49, 63)" stroke="none" stroke-width="1px">45.0</text><text x="0" y="138.0403574867421" dx="0em" dy="0.3em" style="text-anchor: end; visibility: hidden; font-family: &quot;Helvetica Neue&quot;, sans-serif; font-size: 12px; font-weight: 200;" fill="rgb(50, 49, 63)" stroke="none" stroke-width="1px">50.0</text><text x="0" y="118.06053623011316" dx="0em" dy="0.3em" style="text-anchor: end; visibility: inherit; font-family: &quot;Helvetica Neue&quot;, sans-serif; font-size: 12px; font-weight: 200;" fill="rgb(50, 49, 63)" stroke="none" stroke-width="1px">55.0</text><text x="0" y="98.0807149734842" dx="0em" dy="0.3em" style="text-anchor: end; visibility: hidden; font-family: &quot;Helvetica Neue&quot;, sans-serif; font-size: 12px; font-weight: 200;" fill="rgb(50, 49, 63)" stroke="none" stroke-width="1px">60.0</text><text x="0" y="78.10089371685527" dx="0em" dy="0.3em" style="text-anchor: end; visibility: inherit; font-family: &quot;Helvetica Neue&quot;, sans-serif; font-size: 12px; font-weight: 200;" fill="rgb(50, 49, 63)" stroke="none" stroke-width="1px">65.0</text><text x="0" y="58.121072460226316" dx="0em" dy="0.3em" style="text-anchor: end; visibility: hidden; font-family: &quot;Helvetica Neue&quot;, sans-serif; font-size: 12px; font-weight: 200;" fill="rgb(50, 49, 63)" stroke="none" stroke-width="1px">70.0</text><text x="0" y="38.14125120359736" dx="0em" dy="0.3em" style="text-anchor: end; visibility: inherit; font-family: &quot;Helvetica Neue&quot;, sans-serif; font-size: 12px; font-weight: 200;" fill="rgb(50, 49, 63)" stroke="none" stroke-width="1px">75.0</text><text x="0" y="18.16142994696841" dx="0em" dy="0.3em" style="text-anchor: end; visibility: hidden; font-family: &quot;Helvetica Neue&quot;, sans-serif; font-size: 12px; font-weight: 200;" fill="rgb(50, 49, 63)" stroke="none" stroke-width="1px">80.0</text></g><line x1="50" y1="0" x2="50" y2="178" fill="rgb(0, 0, 0)" stroke="rgb(204, 204, 204)" stroke-width="1px"></line></g></g><g transform="translate(50, 0)" clip-path="url(#clip_0)"><clipPath id="clip_0"><rect width="280" height="178"></rect></clipPath><g><g><g><line x1="25.44588155207624" y1="0" x2="25.44588155207624" y2="178" fill="rgb(0, 0, 0)" stroke="rgb(60, 60, 60)" stroke-width="1px" opacity="0.25"></line><line x1="52.13070115724983" y1="0" x2="52.13070115724983" y2="178" fill="rgb(0, 0, 0)" stroke="rgb(60, 60, 60)" stroke-width="1px" opacity="0.25"></line><line x1="78.81552076242342" y1="0" x2="78.81552076242342" y2="178" fill="rgb(0, 0, 0)" stroke="rgb(60, 60, 60)" stroke-width="1px" opacity="0.25"></line><line x1="105.50034036759699" y1="0" x2="105.50034036759699" y2="178" fill="rgb(0, 0, 0)" stroke="rgb(60, 60, 60)" stroke-width="1px" opacity="0.25"></line><line x1="132.18515997277058" y1="0" x2="132.18515997277058" y2="178" fill="rgb(0, 0, 0)" stroke="rgb(60, 60, 60)" stroke-width="1px" opacity="0.25"></line><line x1="158.86997957794418" y1="0" x2="158.86997957794418" y2="178" fill="rgb(0, 0, 0)" stroke="rgb(60, 60, 60)" stroke-width="1px" opacity="0.25"></line><line x1="185.55479918311775" y1="0" x2="185.55479918311775" y2="178" fill="rgb(0, 0, 0)" stroke="rgb(60, 60, 60)" stroke-width="1px" opacity="0.25"></line><line x1="212.23961878829132" y1="0" x2="212.23961878829132" y2="178" fill="rgb(0, 0, 0)" stroke="rgb(60, 60, 60)" stroke-width="1px" opacity="0.25"></line><line x1="238.92443839346495" y1="0" x2="238.92443839346495" y2="178" fill="rgb(0, 0, 0)" stroke="rgb(60, 60, 60)" stroke-width="1px" opacity="0.25"></line><line x1="265.6092579986385" y1="0" x2="265.6092579986385" y2="178" fill="rgb(0, 0, 0)" stroke="rgb(60, 60, 60)" stroke-width="1px" opacity="0.25"></line></g><g><line x1="0" y1="178" x2="280" y2="178" fill="rgb(0, 0, 0)" stroke="rgb(60, 60, 60)" stroke-width="1px" opacity="0.25"></line><line x1="0" y1="158.02017874337105" x2="280" y2="158.02017874337105" fill="rgb(0, 0, 0)" stroke="rgb(60, 60, 60)" stroke-width="1px" opacity="0.25"></line><line x1="0" y1="138.0403574867421" x2="280" y2="138.0403574867421" fill="rgb(0, 0, 0)" stroke="rgb(60, 60, 60)" stroke-width="1px" opacity="0.25"></line><line x1="0" y1="118.06053623011316" x2="280" y2="118.06053623011316" fill="rgb(0, 0, 0)" stroke="rgb(60, 60, 60)" stroke-width="1px" opacity="0.25"></line><line x1="0" y1="98.0807149734842" x2="280" y2="98.0807149734842" fill="rgb(0, 0, 0)" stroke="rgb(60, 60, 60)" stroke-width="1px" opacity="0.25"></line><line x1="0" y1="78.10089371685527" x2="280" y2="78.10089371685527" fill="rgb(0, 0, 0)" stroke="rgb(60, 60, 60)" stroke-width="1px" opacity="0.25"></line><line x1="0" y1="58.121072460226316" x2="280" y2="58.121072460226316" fill="rgb(0, 0, 0)" stroke="rgb(60, 60, 60)" stroke-width="1px" opacity="0.25"></line><line x1="0" y1="38.14125120359736" x2="280" y2="38.14125120359736" fill="rgb(0, 0, 0)" stroke="rgb(60, 60, 60)" stroke-width="1px" opacity="0.25"></line><line x1="0" y1="18.16142994696841" x2="280" y2="18.16142994696841" fill="rgb(0, 0, 0)" stroke="rgb(60, 60, 60)" stroke-width="1px" opacity="0.25"></line></g></g></g><g><g><line x1="0" y1="337.8385700530316" x2="280" y2="337.8385700530316" fill="rgb(0, 0, 0)" stroke="rgb(153, 153, 153)" stroke-width="1.5px"></line></g></g><g><g><line x1="25.44588155207624" y1="0" x2="25.44588155207624" y2="178" fill="rgb(0, 0, 0)" stroke="rgb(153, 153, 153)" stroke-width="1.5px"></line></g></g><g><g><g><g><g><path stroke="rgb(0, 119, 187)" stroke-width="2px" d="M25.44588155207624,27.272955245012525L34.45193404432342,37.53503667146626L43.46688147643899,46.37350643234541L52.50139777626503,54.40342680230145L61.424023144996596,61.828324842299295L70.34275697753573,68.75366528342369L79.27850238257317,75.21620474368676L88.11177066787685,81.22914145558305L96.87210044625974,86.84662270864847L105.65581650404658,92.10160158662747L114.43149005370243,97.04731254442501L123.19548899478102,101.7171299581091L131.97953861281295,106.12664595092753L140.73101051357688,110.29633742202442L149.53992890099082,114.25674085900796L158.2963671431813,118.04200138580079L167.05358369261026,121.68031859539562L175.8315921639815,125.17966917975114L184.59436805082822,128.51275072018584L193.34146660615687,131.81613846091417L202.12269949323047,134.95196477154244L210.93428636260492,137.99144192159673L219.72893578398,140.9731279981751L228.5137637092504,143.87083064469678L237.27494591937065,146.69331890404635L246.04268814764387,149.50272871636358L254.79834808259582,152.20357651229259L263.56534906588,154.8673053559193L272.3226026775584,157.4654964289615L281.0699606686332,160.0048108964698" style="fill: none;" fill="none"></path></g><g><path stroke="rgb(255, 112, 67)" stroke-width="2px" d="M25.44588155207624,19.289898397612546L34.4515634218289,31.87551130246851L43.466103169200515,42.4906861167203L52.50050828227819,51.68860009241817L61.43388170335073,59.90728764548193L70.34223810604341,67.34629856085616L79.2779464488314,74.13003452150924L88.11132592088342,80.36082529468965L96.87239694425534,86.106487007912L105.65581650404658,91.42908913146202L114.43160124045079,96.37713340888524L123.19519249678541,100.98505728811571L131.97931623931623,105.29645797328595L140.73026926858785,109.33984216413573L149.5398918387414,113.15892888175992L158.29621889418348,116.7724629598375L167.0537690038575,120.19422939087642L175.83192572422664,123.47216672862768L184.59414567733154,126.61451067763727L193.3417631041525,129.59754800893023L202.1225883064821,132.50032447571024L210.93428636260492,135.30453789472887L219.72819453899095,138.0021567193822L228.51398608274712,140.6445692206297L237.27464942137505,143.2270636458531L246.04298464563948,145.7301046855394L254.79871870509038,148.1803532240025L263.56512669238333,150.56648294157594L272.32263973980787,152.89002065341487L281.06884880114967,155.12431001141528" style="fill: none;" fill="none"></path></g></g></g></g><g opacity="0.2"><g><g><g><path stroke="rgb(0, 119, 187)" stroke-width="2px" d="M25.44588155207624,27.272955245012525L34.45193404432342,43.69228552733853L43.46688147643899,54.85843740278932L52.50139777626503,63.84661315736979L61.424023144996596,71.52227172332051L70.34275697753573,78.33390423605755L79.27850238257317,84.45773957249429L88.11177066787685,89.99606090572027L96.87210044625974,95.13131641736135L105.65581650404658,99.90463278416799L114.43149005370243,104.4210217467384L123.19548899478102,108.69644313848913L131.97953861281295,112.72652210537L140.73101051357688,116.54270576900299L149.53992890099082,120.19269070891086L158.2963671431813,123.71722251699647L167.05358369261026,127.13625479587895L175.8315921639815,130.4278065715501L184.59436805082822,133.51186526941265L193.34146660615687,136.77091812928245L202.12269949323047,139.65553226131726L210.93428636260492,142.5505576313879L219.72893578398,145.44559824485242L228.5137637092504,148.21735028842892L237.27494591937065,150.92703123203216L246.04268814764387,153.7168314539899L254.79834808259582,156.25484129545677L263.56534906588,158.86289453190824L272.3226026775584,161.36278064522355L281.0699606686332,163.81378119429172" style="fill: none;" fill="none"></path></g><g><path stroke="rgb(255, 112, 67)" stroke-width="2px" d="M25.44588155207624,19.289898397612546L34.4515634218289,39.42687904538212L43.466103169200515,52.68125393840195L52.50050828227819,62.50534692783884L61.43388170335073,70.63760611476208L70.34223810604341,77.63712870074833L79.2779464488314,83.83088548501843L88.11132592088342,89.44537805757805L96.87239694425534,94.58022199758373L105.65581650404658,99.33253296759194L114.43160124045079,103.75432142759993L123.19519249678541,107.8718669886966L131.97931623931623,111.74948152975897L140.73026926858785,115.39699703985451L149.5398918387414,118.88306976512268L158.29621889418348,122.19021553275667L167.0537690038575,125.32543106055792L175.83192572422664,128.3882404673196L184.59414567733154,131.32754789667865L193.3417631041525,134.07183134444185L202.1225883064821,136.85432998072002L210.93428636260492,139.51076574941982L219.72819453899095,142.04853169658426L228.51398608274712,144.6081566706057L237.27464942137505,147.10078692842313L246.04298464563948,149.48465557074218L254.79871870509038,151.85571976218264L263.56512669238333,154.1456738546649L272.32263973980787,156.37532508086662L281.06884880114967,158.47574281355813" style="fill: none;" fill="none"></path></g></g></g></g></g></g><g transform="translate(50, 178)" clip-path="url(#clip_1)"><clipPath id="clip_1"><rect width="280" height="22"></rect></clipPath><g><g><line x1="25.44588155207624" y1="0" x2="25.44588155207624" y2="5" style="visibility: inherit;" fill="rgb(0, 0, 0)" stroke="rgb(204, 204, 204)" stroke-width="1px"></line><line x1="52.13070115724983" y1="0" x2="52.13070115724983" y2="5" style="visibility: inherit;" fill="rgb(0, 0, 0)" stroke="rgb(204, 204, 204)" stroke-width="1px"></line><line x1="78.81552076242342" y1="0" x2="78.81552076242342" y2="5" style="visibility: inherit;" fill="rgb(0, 0, 0)" stroke="rgb(204, 204, 204)" stroke-width="1px"></line><line x1="105.50034036759699" y1="0" x2="105.50034036759699" y2="5" style="visibility: inherit;" fill="rgb(0, 0, 0)" stroke="rgb(204, 204, 204)" stroke-width="1px"></line><line x1="132.18515997277058" y1="0" x2="132.18515997277058" y2="5" style="visibility: inherit;" fill="rgb(0, 0, 0)" stroke="rgb(204, 204, 204)" stroke-width="1px"></line><line x1="158.86997957794418" y1="0" x2="158.86997957794418" y2="5" style="visibility: inherit;" fill="rgb(0, 0, 0)" stroke="rgb(204, 204, 204)" stroke-width="1px"></line><line x1="185.55479918311775" y1="0" x2="185.55479918311775" y2="5" style="visibility: inherit;" fill="rgb(0, 0, 0)" stroke="rgb(204, 204, 204)" stroke-width="1px"></line><line x1="212.23961878829132" y1="0" x2="212.23961878829132" y2="5" style="visibility: inherit;" fill="rgb(0, 0, 0)" stroke="rgb(204, 204, 204)" stroke-width="1px"></line><line x1="238.92443839346495" y1="0" x2="238.92443839346495" y2="5" style="visibility: inherit;" fill="rgb(0, 0, 0)" stroke="rgb(204, 204, 204)" stroke-width="1px"></line><line x1="265.6092579986385" y1="0" x2="265.6092579986385" y2="5" style="visibility: inherit;" fill="rgb(0, 0, 0)" stroke="rgb(204, 204, 204)" stroke-width="1px"></line></g><g transform="translate(0, 8)"><text x="25.44588155207624" y="0" dx="0em" dy="0.95em" style="text-anchor: middle; visibility: inherit; font-family: &quot;Helvetica Neue&quot;, sans-serif; font-size: 12px; font-weight: 200;" fill="rgb(50, 49, 63)" stroke="none" stroke-width="1px">0</text><text x="52.13070115724983" y="0" dx="0em" dy="0.95em" style="text-anchor: middle; visibility: inherit; font-family: &quot;Helvetica Neue&quot;, sans-serif; font-size: 12px; font-weight: 200;" fill="rgb(50, 49, 63)" stroke="none" stroke-width="1px">0.2</text><text x="78.81552076242342" y="0" dx="0em" dy="0.95em" style="text-anchor: middle; visibility: inherit; font-family: &quot;Helvetica Neue&quot;, sans-serif; font-size: 12px; font-weight: 200;" fill="rgb(50, 49, 63)" stroke="none" stroke-width="1px">0.4</text><text x="105.50034036759699" y="0" dx="0em" dy="0.95em" style="text-anchor: middle; visibility: inherit; font-family: &quot;Helvetica Neue&quot;, sans-serif; font-size: 12px; font-weight: 200;" fill="rgb(50, 49, 63)" stroke="none" stroke-width="1px">0.6</text><text x="132.18515997277058" y="0" dx="0em" dy="0.95em" style="text-anchor: middle; visibility: inherit; font-family: &quot;Helvetica Neue&quot;, sans-serif; font-size: 12px; font-weight: 200;" fill="rgb(50, 49, 63)" stroke="none" stroke-width="1px">0.8</text><text x="158.86997957794418" y="0" dx="0em" dy="0.95em" style="text-anchor: middle; visibility: inherit; font-family: &quot;Helvetica Neue&quot;, sans-serif; font-size: 12px; font-weight: 200;" fill="rgb(50, 49, 63)" stroke="none" stroke-width="1px">1</text><text x="185.55479918311775" y="0" dx="0em" dy="0.95em" style="text-anchor: middle; visibility: inherit; font-family: &quot;Helvetica Neue&quot;, sans-serif; font-size: 12px; font-weight: 200;" fill="rgb(50, 49, 63)" stroke="none" stroke-width="1px">1.2</text><text x="212.23961878829132" y="0" dx="0em" dy="0.95em" style="text-anchor: middle; visibility: inherit; font-family: &quot;Helvetica Neue&quot;, sans-serif; font-size: 12px; font-weight: 200;" fill="rgb(50, 49, 63)" stroke="none" stroke-width="1px">1.4</text><text x="238.92443839346495" y="0" dx="0em" dy="0.95em" style="text-anchor: middle; visibility: inherit; font-family: &quot;Helvetica Neue&quot;, sans-serif; font-size: 12px; font-weight: 200;" fill="rgb(50, 49, 63)" stroke="none" stroke-width="1px">1.6</text><text x="265.6092579986385" y="0" dx="0em" dy="0.95em" style="text-anchor: middle; visibility: inherit; font-family: &quot;Helvetica Neue&quot;, sans-serif; font-size: 12px; font-weight: 200;" fill="rgb(50, 49, 63)" stroke="none" stroke-width="1px">1.8</text></g><line x1="0" y1="0" x2="280" y2="0" fill="rgb(0, 0, 0)" stroke="rgb(204, 204, 204)" stroke-width="1px"></line></g></g></g></g></svg>